<svg xmlns="http://www.w3.org/2000/svg" xmlns:xlink="http://www.w3.org/1999/xlink" version="1.1" width="1000" height="1000" viewBox="0 0 1000 1000" xml:space="preserve">
<desc>Created with Fabric.js 3.5.0</desc>
<defs>
</defs>
<rect x="0" y="0" width="100%" height="100%" fill="none"/>
<g transform="matrix(2.0346 0 0 1.8117 516.869 487.7159)" id="439272">
<g style="" vector-effect="non-scaling-stroke">
		<g transform="matrix(0.1333 0 0 -0.1333 201.8861 -240.1105)">
<filter id="SVGID_397" y="-40.64%" height="181.28%" x="-41.91%" width="183.82%">
	<feGaussianBlur in="SourceAlpha" stdDeviation="36.5"/>
	<feOffset dx="-100" dy="88" result="oBlur"/>
	<feFlood flood-color="rgb(0,0,0)" flood-opacity="1"/>
	<feComposite in2="oBlur" operator="in"/>
	<feMerge>
		<feMergeNode/>
		<feMergeNode in="SourceGraphic"/>
	</feMerge>
</filter>
<path style="stroke: rgb(0,0,0); stroke-width: 60; stroke-dasharray: none; stroke-linecap: butt; stroke-dashoffset: 0; stroke-linejoin: miter; stroke-miterlimit: 4; is-custom-font: none; font-file-url: none; fill: rgb(31,199,202); fill-rule: nonzero; opacity: 0.83;filter: url(#SVGID_397);" transform=" translate(-4684.7517, -5030.2243)" d="M 4379 5392 c -39 -29 -89 -109 -89 -143 c 0 -11 9 -40 20 -65 c 26 -56 43 -65 174 -84 c 39 -6 77 -17 86 -25 c 9 -8 20 -15 25 -15 c 13 0 85 -51 85 -60 c 0 -8 44 -62 88 -107 c 16 -18 22 -36 22 -71 c 0 -26 -4 -52 -8 -58 c -12 -18 -66 -42 -82 -36 c -19 7 -50 42 -50 57 c 0 7 -9 22 -20 35 c -11 13 -20 27 -20 32 c 0 14 -57 68 -71 68 c -7 0 -21 8 -32 18 c -26 23 -163 25 -177 2 c -22 -35 3 -59 65 -64 c 108 -8 146 -36 186 -132 c 20 -48 30 -60 62 -72 c 20 -8 37 -19 37 -24 c 0 -13 33 -9 54 7 c 11 8 29 15 39 15 c 23 0 53 31 85 89 c 21 39 22 44 8 71 c -8 17 -17 43 -21 59 c -3 16 -13 35 -21 42 c -8 6 -14 18 -14 26 c 0 8 -27 42 -60 74 c -33 32 -60 63 -60 69 c 0 5 -8 10 -18 10 c -9 0 -23 9 -30 20 c -7 12 -23 20 -40 20 c -15 0 -40 7 -57 16 c -16 8 -51 17 -77 19 c -82 6 -88 10 -88 64 c 0 77 12 85 115 78 c 57 -4 93 -11 105 -22 c 9 -8 25 -15 36 -15 c 33 0 64 -12 64 -24 c 0 -6 18 -19 39 -29 c 41 -19 171 -144 171 -164 c 0 -7 5 -13 11 -13 c 5 0 17 -17 26 -37 c 8 -21 19 -40 23 -43 c 4 -3 10 -16 13 -30 c 8 -34 43 -129 50 -136 c 3 -3 15 0 27 6 c 21 11 22 17 17 73 c -3 39 -11 65 -21 73 c -9 6 -16 16 -16 22 c 0 6 -19 46 -42 89 c -39 75 -91 137 -102 125 c -3 -3 -6 -1 -6 5 c 0 15 -50 63 -66 63 c -7 0 -30 16 -51 35 c -21 19 -45 35 -54 35 c -9 0 -26 9 -39 20 c -13 11 -37 20 -56 20 c -19 0 -48 9 -66 20 c -50 30 -132 26 -179 -8 z" stroke-linecap="round"/>
</g>
		<g transform="matrix(0.1333 0 0 -0.1333 -8.6831 17.2945)">
<filter id="SVGID_398" y="-24.240000000000002%" height="148.48000000000002%" x="-25.1%" width="150.2%">
	<feGaussianBlur in="SourceAlpha" stdDeviation="36.5"/>
	<feOffset dx="-100" dy="88" result="oBlur"/>
	<feFlood flood-color="rgb(0,0,0)" flood-opacity="1"/>
	<feComposite in2="oBlur" operator="in"/>
	<feMerge>
		<feMergeNode/>
		<feMergeNode in="SourceGraphic"/>
	</feMerge>
</filter>
<path style="stroke: rgb(0,0,0); stroke-width: 60; stroke-dasharray: none; stroke-linecap: butt; stroke-dashoffset: 0; stroke-linejoin: miter; stroke-miterlimit: 4; is-custom-font: none; font-file-url: none; fill: rgb(31,199,202); fill-rule: nonzero; opacity: 0.83;filter: url(#SVGID_398);" transform=" translate(-3105.8086, -3099.3091)" d="M 2810 4985 c -14 -7 -38 -20 -55 -28 c -16 -8 -45 -29 -63 -46 c -18 -17 -35 -31 -37 -31 c -2 0 -20 -11 -40 -25 c -21 -13 -54 -32 -76 -42 c -21 -9 -39 -21 -39 -25 c 0 -5 -16 -16 -35 -24 c -19 -8 -35 -19 -35 -24 c 0 -6 -6 -10 -13 -10 c -16 0 -107 -48 -125 -66 c -7 -8 -18 -14 -24 -14 c -10 0 -55 -33 -89 -65 c -9 -8 -21 -15 -27 -15 c -6 0 -15 -6 -19 -13 c -4 -7 -23 -19 -40 -26 c -18 -8 -33 -17 -33 -22 c 0 -5 -6 -9 -14 -9 c -7 0 -25 -9 -39 -20 c -14 -11 -32 -20 -41 -20 c -8 0 -19 -6 -23 -14 c -4 -8 -24 -21 -43 -30 c -19 -9 -66 -34 -105 -56 c -38 -22 -81 -45 -95 -52 c -49 -25 -105 -66 -138 -100 c -9 -10 -22 -18 -29 -18 c -7 0 -13 -7 -13 -15 c 0 -8 -9 -19 -20 -25 c -12 -6 -20 -21 -20 -36 c 0 -14 -7 -32 -15 -40 c -8 -8 -19 -34 -25 -57 c -5 -23 -15 -57 -21 -76 c -6 -18 -10 -75 -9 -125 c 1 -50 2 -428 3 -841 c 2 -519 5 -756 13 -770 c 6 -11 23 -45 39 -75 c 15 -30 34 -62 41 -71 c 8 -8 14 -21 14 -27 c 0 -6 9 -14 20 -17 c 11 -3 20 -13 20 -20 c 0 -8 6 -18 13 -22 c 7 -4 39 -41 70 -80 c 32 -40 61 -73 65 -73 c 4 0 18 -16 31 -35 c 13 -19 30 -35 37 -35 c 8 0 14 -4 14 -8 c 0 -4 27 -27 60 -50 c 33 -24 60 -47 60 -52 c 0 -6 5 -10 12 -10 c 6 0 18 -7 27 -15 c 30 -28 76 -62 94 -68 c 9 -3 17 -11 17 -17 c 0 -5 6 -10 13 -10 c 6 0 23 -9 37 -20 c 14 -11 33 -20 42 -20 c 9 0 21 -6 25 -13 c 4 -7 24 -19 43 -27 c 19 -8 41 -20 48 -27 c 7 -7 22 -13 31 -13 c 10 0 24 -6 30 -14 c 7 -8 27 -18 44 -21 c 18 -4 41 -13 52 -20 c 11 -7 35 -16 52 -19 c 17 -4 37 -14 44 -22 c 6 -8 29 -17 51 -21 c 22 -3 42 -11 44 -18 c 3 -7 28 -16 57 -19 c 28 -4 56 -11 62 -16 c 9 -7 113 -30 137 -30 c 4 0 9 371 10 825 c 3 721 5 827 18 835 c 8 5 100 9 208 7 c 179 -2 195 -4 208 -21 c 11 -16 14 -78 14 -328 c 0 -306 0 -308 21 -308 c 11 0 32 9 46 20 c 14 11 34 20 44 20 c 11 0 19 6 19 13 c 0 8 11 19 25 25 c 14 6 25 16 25 21 c 0 5 14 14 30 20 c 17 5 30 14 30 19 c 0 5 27 22 60 38 c 33 16 60 32 60 36 c 0 4 15 14 33 23 c 39 18 64 34 89 58 c 10 9 22 17 28 17 c 6 0 10 7 10 15 c 0 8 7 15 15 15 c 9 0 27 11 40 25 l 25 24 l 0 720 l 0 720 l 29 20 c 16 12 35 21 43 21 c 12 0 129 -87 169 -125 c 9 -8 21 -15 27 -15 c 17 0 104 -47 137 -73 l 30 -25 l -3 -738 c -1 -407 -2 -744 -2 -750 c 0 -23 -54 -47 -114 -51 c -34 -2 -100 -13 -147 -24 c -48 -10 -96 -19 -109 -19 c -12 0 -34 -6 -48 -14 c -15 -8 -43 -17 -63 -21 c -21 -3 -42 -12 -49 -20 c -7 -8 -20 -15 -30 -15 c -9 0 -28 -8 -41 -18 c -13 -10 -35 -23 -49 -30 c -14 -7 -38 -21 -55 -32 c -16 -11 -45 -27 -62 -35 c -18 -8 -33 -19 -33 -23 c 0 -4 -27 -28 -60 -52 c -33 -25 -60 -51 -60 -58 c 0 -7 -7 -15 -15 -18 c -8 -4 -15 -12 -15 -19 c 0 -6 -9 -20 -20 -30 c -11 -10 -20 -26 -20 -36 c 0 -10 -6 -24 -13 -31 c -31 -31 -60 -110 -74 -198 c -18 -115 -18 -140 0 -255 c 17 -105 34 -145 62 -145 c 20 0 101 37 126 58 c 54 45 78 62 88 62 c 6 0 11 4 11 9 c 0 5 16 15 35 21 c 19 6 35 15 35 20 c 0 9 28 26 88 55 c 18 9 35 22 39 30 c 3 8 13 15 24 15 c 29 0 156 72 172 97 c 4 7 13 13 20 13 c 7 0 37 17 68 39 c 31 21 66 42 79 46 c 13 4 28 11 34 16 c 24 20 87 59 96 59 c 5 0 15 6 22 13 c 7 8 25 20 40 28 c 67 35 135 78 147 93 c 7 9 22 16 32 16 c 10 0 24 8 31 19 c 7 10 23 21 34 25 c 12 4 43 30 70 58 c 27 28 60 63 74 77 c 14 14 31 37 38 50 c 23 44 33 221 38 671 c 2 245 6 468 9 495 c 2 28 5 185 6 351 c 2 268 1 303 -14 324 c -9 14 -17 32 -17 41 c 0 9 -8 27 -19 40 c -10 13 -22 39 -25 57 c -4 18 -14 32 -22 32 c -13 0 -19 13 -15 33 c 1 5 -8 11 -19 14 c -11 3 -20 12 -20 19 c 0 8 -11 19 -25 24 c -14 5 -25 14 -25 19 c 0 5 -12 12 -27 16 c -16 3 -35 13 -44 21 c -8 7 -25 15 -37 17 c -13 2 -45 20 -72 40 c -27 20 -54 37 -60 37 c -5 0 -10 4 -10 9 c 0 4 -27 25 -60 46 c -33 21 -60 42 -60 46 c 0 5 -7 9 -15 9 c -8 0 -19 9 -25 20 c -6 11 -17 20 -25 20 c -7 0 -24 9 -37 20 c -53 45 -184 140 -193 140 c -3 0 -27 15 -53 33 c -26 17 -55 37 -64 42 c -23 15 -131 88 -143 97 c -30 24 -86 57 -106 63 c -13 4 -55 23 -93 42 c -52 25 -79 33 -110 31 l -41 -3 l -2 -83 c -1 -46 -8 -109 -14 -140 c -16 -71 -22 -976 -7 -1072 c 5 -36 12 -127 14 -202 c 8 -197 18 -187 -203 -188 c -170 0 -172 0 -202 26 l -31 26 l -2 300 l -3 300 l -27 -21 c -14 -12 -33 -21 -42 -21 c -8 0 -19 -6 -23 -13 c -4 -8 -23 -22 -40 -32 c -18 -11 -33 -23 -33 -27 c 0 -4 -9 -8 -20 -8 c -11 0 -20 -4 -20 -10 c 0 -5 -18 -19 -40 -30 c -22 -11 -40 -24 -40 -28 c 0 -4 -9 -8 -20 -9 c -11 -1 -27 -8 -35 -16 c -8 -8 -30 -18 -49 -21 c -19 -4 -37 -13 -40 -21 c -3 -8 -12 -15 -19 -15 c -8 0 -22 -9 -31 -19 c -10 -11 -28 -22 -42 -25 c -13 -4 -24 -11 -24 -16 c 0 -6 -6 -10 -14 -10 c -8 0 -18 -6 -23 -12 c -4 -7 -10 -343 -13 -746 c -6 -807 -1 -752 -68 -752 c -20 0 -39 8 -49 20 c -10 11 -21 20 -26 20 c -4 0 -24 15 -43 34 c -19 19 -48 39 -64 46 c -17 7 -30 16 -30 21 c 0 5 -6 9 -14 9 c -7 0 -19 7 -26 14 c -6 8 -28 20 -48 27 c -78 25 -72 -44 -72 768 c 0 399 4 731 8 737 c 4 6 25 17 47 24 c 22 7 45 16 50 20 c 6 4 33 11 60 15 c 28 4 57 13 65 20 c 8 7 38 16 65 20 c 28 3 59 12 70 19 c 11 7 37 16 58 20 c 21 4 41 14 44 22 c 3 7 11 14 19 14 c 19 0 166 79 187 101 c 10 11 24 19 33 19 c 8 0 17 7 20 15 c 4 8 12 15 19 15 c 8 0 20 6 27 13 c 7 6 34 28 59 47 c 26 19 57 50 69 67 c 12 18 32 43 44 56 c 11 12 32 45 46 72 c 14 28 30 53 36 57 c 7 4 15 29 19 55 c 4 25 14 57 22 70 c 13 19 16 59 17 203 c 1 176 1 179 -23 204 c -27 29 -54 32 -91 11 z" stroke-linecap="round"/>
</g>
		<g transform="matrix(0.1333 0 0 -0.1333 160.1388 -190.7363)">
<filter id="SVGID_399" y="-154.17%" height="408.34%" x="-193.67%" width="487.34%">
	<feGaussianBlur in="SourceAlpha" stdDeviation="36.5"/>
	<feOffset dx="-100" dy="88" result="oBlur"/>
	<feFlood flood-color="rgb(0,0,0)" flood-opacity="1"/>
	<feComposite in2="oBlur" operator="in"/>
	<feMerge>
		<feMergeNode/>
		<feMergeNode in="SourceGraphic"/>
	</feMerge>
</filter>
<path style="stroke: rgb(0,0,0); stroke-width: 60; stroke-dasharray: none; stroke-linecap: butt; stroke-dashoffset: 0; stroke-linejoin: miter; stroke-miterlimit: 4; is-custom-font: none; font-file-url: none; fill: rgb(31,199,202); fill-rule: nonzero; opacity: 0.83;filter: url(#SVGID_399);" transform=" translate(-4371.5606, -4660)" d="M 4330 4694 c -19 -50 -4 -94 33 -94 c 46 0 61 23 58 88 c -1 31 -3 32 -41 32 c -34 0 -42 -4 -50 -26 z" stroke-linecap="round"/>
</g>
</g>
</g>
</svg>