<?xml version="1.0" standalone="no"?>
<!DOCTYPE svg PUBLIC "-//W3C//DTD SVG 20010904//EN"
 "http://www.w3.org/TR/2001/REC-SVG-20010904/DTD/svg10.dtd">
<svg version="1.0" xmlns="http://www.w3.org/2000/svg"
 width="232.000000pt" height="200pt" viewBox="0 0 232.000000 148.000000"
 preserveAspectRatio="xMidYMid meet">

<g transform="translate(0.000000,148.000000) scale(0.100000,-0.100000)"
fill="none" stroke="none">
<path d="M661 844 c0 -11 3 -14 6 -6 3 7 2 16 -1 19 -3 4 -6 -2 -5 -13z"/>
<path d="M652 745 c0 -45 6 -97 14 -120 8 -24 11 -28 7 -10 -3 17 -9 71 -13
120 l-7 90 -1 -80z"/>
<path d="M1159 733 c-13 -16 -12 -17 4 -4 9 7 17 15 17 17 0 8 -8 3 -21 -13z"/>
<path d="M1049 693 c-13 -16 -12 -17 4 -4 9 7 17 15 17 17 0 8 -8 3 -21 -13z"/>
<path d="M1109 683 l-24 -28 28 24 c25 23 32 31 24 31 -2 0 -14 -12 -28 -27z"/>
<path d="M1662 685 c0 -16 2 -22 5 -12 2 9 2 23 0 30 -3 6 -5 -1 -5 -18z"/>
<path d="M943 653 c9 -2 25 -2 35 0 9 3 1 5 -18 5 -19 0 -27 -2 -17 -5z"/>
<path d="M1361 594 c0 -11 3 -14 6 -6 3 7 2 16 -1 19 -3 4 -6 -2 -5 -13z"/>
<path d="M680 579 c-2 -27 106 -206 118 -195 2 3 -10 23 -28 45 -18 22 -45 66
-61 98 -15 32 -28 55 -29 52z"/>
<path d="M1110 576 c0 -2 8 -10 18 -17 15 -13 16 -12 3 4 -13 16 -21 21 -21
13z"/>
<path d="M1352 535 c0 -16 2 -22 5 -12 2 9 2 23 0 30 -3 6 -5 -1 -5 -18z"/>
<path d="M1150 547 c0 -3 12 -12 26 -22 15 -9 23 -12 20 -6 -7 11 -46 35 -46
28z"/>
<path d="M1230 496 c0 -3 9 -10 20 -16 11 -6 20 -8 20 -6 0 3 -9 10 -20 16
-11 6 -20 8 -20 6z"/>
<path d="M1544 418 l-19 -23 23 19 c21 18 27 26 19 26 -2 0 -12 -10 -23 -22z"/>
<path d="M810 376 c0 -16 131 -106 155 -106 6 0 -15 14 -45 31 -30 17 -67 43
-82 57 -16 14 -28 22 -28 18z"/>
<path d="M1475 350 c-3 -5 -34 -25 -68 -44 -34 -20 -58 -36 -53 -36 14 0 112
58 126 75 7 8 10 15 7 15 -3 0 -8 -4 -12 -10z"/>
<path d="M1030 250 c69 -24 176 -25 252 -4 76 22 69 29 -8 9 -74 -19 -154 -19
-227 0 -77 20 -85 17 -17 -5z"/>
</g>
</svg>
