<?xml version="1.0" standalone="no"?>
<!DOCTYPE svg PUBLIC "-//W3C//DTD SVG 20010904//EN"
 "http://www.w3.org/TR/2001/REC-SVG-20010904/DTD/svg10.dtd">
<svg version="1.0" xmlns="http://www.w3.org/2000/svg"
 width="32" height="32" viewBox="0 0 204 192" preserveAspectRatio="xMidYMid meet">

<g transform="translate(0.000000,192.000000) scale(0.100000,-0.100000)"
fill="red" stroke="none">
<path d="M618 1429 c-59 -4 -123 -12 -142 -19 -36 -11 -100 -74 -110 -106 -34
-113 -34 -575 0 -688 10 -31 74 -94 107 -105 130 -42 1000 -40 1100 3 54 23
94 74 109 141 18 83 18 527 0 608 -17 73 -66 132 -123 147 -100 27 -672 39
-941 19z m349 -306 c44 -27 123 -73 176 -103 53 -30 96 -57 96 -60 0 -3 -43
-30 -96 -60 -53 -30 -132 -76 -176 -102 -44 -27 -82 -48 -84 -48 -1 0 -3 94
-3 210 0 116 2 210 3 210 2 0 40 -21 84 -47z"/>
</g>
</svg>